<?xml version="1.0" encoding="UTF-8"?><svg id="Capa_2" xmlns="http://www.w3.org/2000/svg" viewBox="0 0 568.21 959.12"><defs><style>.cls-1{fill:#2b9777;}.cls-2,.cls-3{fill:#724996;}.cls-3{stroke:#724996;stroke-miterlimit:10;stroke-width:3.41px;}</style></defs><g id="Capa_1-2"><g><path class="cls-3" d="M85.59,295C52.34,320.13,1.71,289.07,1.75,248.55c-1.39-31.8,29.92-55.96,60.33-46.52,39.23,10.28,56.31,67.23,23.51,92.96m0,0c20.1-14.99,17.51-46.48,.74-62.41-38.15-36.32-86.73,1.1-61.31,47.23,11.15,20.28,40.94,30.8,60.57,15.18"/><path class="cls-3" d="M456.91,188.13c-20.16-7.55-32.33-27.76-36.81-48.07-8.93-42.38,4.97-89.56,38.01-119.19,43.34-37.91,99.54-16.99,107.49,40.07,5.53,44.14-14.67,88.59-49.37,114.99-16.7,12.4-39.14,19.7-59.31,12.2m0,0c20.05,7.38,42.34-.67,57.65-14.31,29.92-26.77,42.92-71.62,34.48-109.8-9.5-42.29-45.57-55.8-80.49-30.06-31.42,23.32-50.95,65.76-45.84,105.6,2.65,20.32,14.23,41.01,34.21,48.56"/><path class="cls-3" d="M346.96,163.83c-17.29,.07-32.91-10.26-43.08-23.81-21.17-28.49-24.62-69.79-5.82-101.23,23.58-39.12,74.23-39.15,97.84-.03,18.84,31.45,15.35,72.8-5.84,101.27-10.18,13.55-25.81,23.88-43.1,23.81m0,0c35.77-.51,54.63-41.05,51.15-72.44-1.46-15.98-6.94-31.33-16.12-43.12-19.35-25.87-50.73-25.9-70.11-.03-9.19,11.79-14.67,27.17-16.14,43.15-3.45,31.39,15.44,71.94,51.21,72.44"/><path class="cls-3" d="M249.19,162.35c-44.6,19.16-91.29-31.48-84.4-76.17,4.81-38.17,44.92-57.46,77.73-37.36,39.24,22.54,49.51,90.71,6.67,113.54m0,0c41.12-21.97,22.7-83.59-14.49-98.61-23.26-10.8-47.33,.73-53.47,25.65-11.56,38.44,25.11,91.34,67.96,72.97"/><path class="cls-3" d="M160.65,213.69c-38.22,26.5-91.52-12.93-95-55.5-3.99-37.53,30.3-63.97,65.58-50.56,40.33,14.2,64.8,75.88,29.42,106.07m0,0c33.97-28.94,2.72-82.87-34.31-89.95-23.9-5.91-43.55,9.19-43.96,33.83-2.64,37.64,41.63,81.59,78.27,56.11"/><path class="cls-2" d="M316.47,576.92c-6.09-31.47,9.62-62.91,36.1-80.12,8.61-5.83,18.06-9.78,26.72-15.45,25.92-15.72,51.02-34.5,66.59-60.85,15.06-24.75,14.18-61.04-8.55-80.36-55.7-43.24-113.2,53.49-133.31,96.32l-5.15-10.06c-15.5-30.59-42.17-67.28-80.53-61.43-11.21,1.86-21.62,7.94-28.86,16.68-23.99,29.29-3.52,71.69,11.58,100.97,18.09,33.24,42.65,62.7,71.12,87.59l59.13,49.87c27.14,22.85,77,64.85,103.73,87.36,36.14,29.57,67.95,70.11,73.18,118.39,5.22,47.95-15.66,103.19-61.44,124.19-58.81,24.47-129.17-3.08-167.23-51.22-79.35-103.41-142.32-222.44-163.86-352.11-7.28-41.9-10.17-84.88-8.26-127.35,1.5-23,3.13-46.45,9.5-68.86,20.81-79.35,89.98-138.1,169.72-152.74,60.91-11.41,142.55-5.95,187.42,41.89,25.95,27.69,30.64,68.04,25.1,104.07-4.61,29.19-14.37,57.59-28.92,83.17-12.14,23.1-30.31,42.02-44.48,63.67-20.45,31.63-35.48,71.51-22.84,108.84,4.07,12.19,10.96,23.34,19.37,33.14-17.9-18.89-28.02-45.05-26.05-71.19,1.49-26.22,12.32-50.96,25.77-73.15,13.59-21.95,31.23-41.11,42.73-64.31,14.97-28.1,24.56-59.08,27.02-90.74,9.3-101.6-79.02-132.23-165.04-127.61-110.79,6.66-195.46,82.71-201.18,195.59-8.49,111.49,19.16,223.41,67.38,323.61,22.3,45.96,49.19,89.66,78.96,131.25,14.89,19.99,28.28,41.3,48.79,55.9,36.33,27.51,94.66,40.64,132.86,11.91,27.78-22.47,39.54-61.05,35.97-95.87-2.64-24.12-13.02-46.75-27.55-66.19-14.32-20.03-34.53-37.01-53.36-52.9l-29.47-25.19c-29.42-25.18-88.58-75.7-117.95-100.91-19.82-17.51-37.65-37.32-52.82-59.03-22.15-33.1-42.84-69.74-43.97-110.74-.62-29.46,22.72-56.77,51.92-60.8,44.36-6.58,75.79,33.76,92.69,69.21l-10.17,.06c9.66-18.8,20.81-36.29,33.81-52.81,13.33-16.43,28.28-32.14,47.7-41.63,46.56-23.34,89.78,18.62,81.71,66.68-3.41,21.23-15.84,39.49-30.85,54.25-18.63,18.32-40.76,32.07-63.66,44.01-33.63,14.83-56.99,47.34-51.08,84.99"/><path class="cls-1" d="M302.61,455.76s78.59-164.7,133.95-102.52c0,0,49.21,59.46-76.54,130.53,0,0-52.3,17.41-54.52,89.01,0,0-131.56-95.61-112.03-174.38,4.52-18.28,24.27-28.76,41.83-21.95,17.5,6.79,40.69,27.3,67.31,79.31"/></g></g></svg>